<?xml version="1.0" encoding="UTF-8"?>
<svg xmlns="http://www.w3.org/2000/svg" viewBox="0 0 1235.17 110.35">
  <defs>
    <style>
      .cls-1 {
        fill: #fff;
      }
    </style>
  </defs>
  <g>
    <g>
      <path class="cls-1" d="M53.56,27.9c-.95,0-1.63.62-1.63,1.61v6.2c0,.62.68,1.49,1.63,1.49h62.78c.95,0,1.63.62,1.63,1.61v55.67c0,.99-.27,2.23-.95,2.85l-12.88,11.78c-.68.62-2.04,1.24-3.12,1.24H1.76c-1.09,0-1.76-.99-1.76-1.86v-38.44c0-.62.68-1.49,1.76-1.49h57.22c1.09,0,1.76-.62,1.76-1.61v-6.2c0-.87-.68-1.86-1.76-1.86H1.76c-1.09,0-1.76-.62-1.76-1.49V15.5c0-.87.68-2.11,1.36-2.48L14.24,1.24c.68-.62,2.03-1.24,3.12-1.24h98.99c.95,0,1.63.99,1.63,1.61v24.8c0,.87-.68,1.49-1.63,1.49h-62.78Z"/>
      <path class="cls-1" d="M185.51,68.2c-.68,0-1.76.99-1.76,1.61v4.96c0,.62,1.09,1.49,1.76,1.49h45.7c1.09,0,1.76.62,1.76,1.61v30.63c0,.87-.68,1.86-1.76,1.86h-80.68c-.95,0-2.3-.62-2.98-1.24l-10.17-9.3c-.68-.62-1.36-1.86-1.36-2.85V21.7c0-.87.95-1.86,1.63-1.86h81.09c.95,0,2.3.62,2.71,1.24l10.44,9.3c.68.62,1.09,1.86,1.09,2.85v33.48c0,.87-.68,1.49-1.76,1.49h-45.7ZM185.51,42.78c-.68,0-1.76.62-1.76,1.61v4.34c0,.87,1.09,1.49,1.76,1.49h13.83c1.09,0,1.76-.62,1.76-1.49v-4.34c0-.99-.68-1.61-1.76-1.61h-13.83Z"/>
      <path class="cls-1" d="M301.45.37c.68,0,1.76.62,1.76,1.49v16.49c0,.87-1.09,1.86-1.76,1.86h-48.14c-.68,0-1.63-.99-1.63-1.86V1.86c0-.87.95-1.49,1.63-1.49h48.14ZM251.68,31.62c0-.87.95-1.49,1.63-1.49h48.14c.68,0,1.76.62,1.76,1.49v76.88c0,.87-1.09,1.86-1.76,1.86h-48.14c-.68,0-1.63-.99-1.63-1.86V31.62Z"/>
      <path class="cls-1" d="M416.71,19.84c1.09,0,1.76.99,1.76,1.61v75.51c0,.99-.41,2.23-1.09,2.85l-10.44,9.3c-.68.62-1.76.87-2.71.87h-81.09c-.68,0-1.63-.62-1.63-1.49v-30.63c0-.99.95-1.61,1.63-1.61h46.51c.95,0,1.63-.87,1.63-1.49v-4.96c0-.99-.68-1.61-1.63-1.61h-46.51c-.68,0-1.63-.62-1.63-1.49V21.45c0-.62.95-1.61,1.63-1.61h28.88c.95,0,1.63.99,1.63,1.61v22.57c0,.99.68,1.61,1.76,1.61h14.24c.95,0,1.63-.62,1.63-1.61v-22.57c0-.62,1.09-1.61,1.76-1.61h43.66Z"/>
      <path class="cls-1" d="M534.15,108.49c0,.87-.68,1.86-1.76,1.86h-93.56c-.68,0-1.63-.99-1.63-1.86v-45.26c0-.62.68-1.86,1.36-2.48l10.17-9.3c.68-.62,2.03-1.24,2.98-1.24h32.95c.95,0,1.63-.62,1.63-1.49v-4.34c0-.99-.68-1.61-1.63-1.61h-45.83c-.68,0-1.63-.62-1.63-1.49v-19.59c0-.87.95-1.86,1.63-1.86h81.09c.68,0,2.03.62,2.71,1.24l10.44,9.3c.41.62,1.09,1.86,1.09,2.85v75.26ZM469.33,74.77c0,.62.68,1.49,1.76,1.49h13.56c.95,0,1.63-.87,1.63-1.49v-4.96c0-.62-.68-1.61-1.63-1.61h-13.56c-1.09,0-1.76.99-1.76,1.61v4.96Z"/>
      <path class="cls-1" d="M644.42,109.98h-52.41c-.84,0-1.44-.62-1.44-1.49V1.61c0-.62.6-1.61,1.44-1.61h52.41c.6,0,1.43.99,1.43,1.61v106.88c0,.87-.84,1.49-1.43,1.49Z"/>
      <path class="cls-1" d="M747.92,58.9c0,.99-.84,1.61-1.43,1.61h-40.08c-.96,0-1.55.87-1.55,1.49v46.5c0,.87-.84,1.49-1.44,1.49h-39.84c-.6,0-1.44-.62-1.44-1.49V21.45c0-.62.84-1.61,1.44-1.61h39.84c.6,0,1.44.99,1.44,1.61v9.3c0,.87.96,1.49,1.55.87l10.17-10.54c.6-.62,1.79-1.24,2.39-1.24h27.52c.6,0,1.43.99,1.43,1.61v37.45Z"/>
      <path class="cls-1" d="M808.11.37c.6,0,1.55.62,1.55,1.49v16.49c0,.87-.96,1.86-1.55,1.86h-42.48c-.6,0-1.44-.99-1.44-1.86V1.86c0-.87.84-1.49,1.44-1.49h42.48ZM764.2,31.62c0-.87.84-1.49,1.44-1.49h42.48c.6,0,1.55.62,1.55,1.49v76.88c0,.87-.96,1.86-1.55,1.86h-42.48c-.6,0-1.44-.99-1.44-1.86V31.62Z"/>
      <path class="cls-1" d="M928.72,30.38c.6.62,1.2,1.86,1.2,2.85v75.26c0,.87-.96,1.49-1.55,1.49h-23.33c-.84,0-1.43-.62-1.43-1.49v-46.5c0-.62-.96-1.49-1.56-1.49h-6.58c-.84,0-1.44.87-1.44,1.49v46.5c0,.87-.6,1.49-1.56,1.49h-16.15c-.6,0-1.44-.62-1.44-1.49v-46.5c0-.62-.6-1.49-1.55-1.49h-6.22c-.96,0-1.55.87-1.55,1.49v46.5c0,.87-.6,1.49-1.44,1.49h-37.09c-.96,0-1.8-.62-1.8-1.49V21.7c0-.87.84-1.49,1.44-1.49h90.34c.96,0,2.15.25,2.75.87l8.97,9.3Z"/>
      <path class="cls-1" d="M1030.08,30.38c.6.62.96,1.86.96,2.85v75.26c0,.87-.6,1.49-1.55,1.49h-71.19c-.84,0-2.04-.25-2.63-.87l-8.97-9.3c-.6-.62-1.2-1.86-1.2-2.85V21.7c0-.87.84-1.49,1.79-1.49h71.19c.84,0,2.03.25,2.63.87l8.97,9.3ZM1001.36,72.91c.96,0,1.55-.62,1.55-1.61v-26.91c0-.99-.6-1.61-1.55-1.61h-12.21c-.6,0-1.55.62-1.55,1.61v26.91c0,.99.96,1.61,1.55,1.61h12.21Z"/>
      <path class="cls-1" d="M1131.55,69.81c.96,0,1.55.62,1.55,1.49v37.2c0,.87-.6,1.49-1.55,1.49h-59.83c-.84,0-2.04-.25-2.63-.87l-8.97-9.3c-.6-.62-.96-1.86-.96-2.85v-52.57c0-.99-.84-1.61-1.44-1.61h-8.73c-.6,0-1.44-.62-1.44-1.49v-19.59c0-.87.84-1.86,1.44-1.86h8.73c.6,0,1.44-.62,1.44-1.49V1.86c0-.87.6-1.86,1.55-1.86h39.13c.6,0,1.56.99,1.56,1.86v16.49c0,.87.6,1.49,1.43,1.49h28.72c.96,0,1.55.99,1.55,1.86v19.59c0,.87-.6,1.49-1.55,1.49h-28.72c-.84,0-1.43.62-1.43,1.61v23.81c0,.99.6,1.61,1.43,1.61h28.72Z"/>
      <path class="cls-1" d="M1234.21,30.38c.6.62.96,1.86.96,2.85v75.26c0,.87-.6,1.49-1.55,1.49h-71.19c-.84,0-2.04-.25-2.63-.87l-8.97-9.3c-.6-.62-1.2-1.86-1.2-2.85V21.7c0-.87.84-1.49,1.79-1.49h71.19c.84,0,2.03.25,2.63.87l8.97,9.3ZM1205.5,72.91c.96,0,1.55-.62,1.55-1.61v-26.91c0-.99-.6-1.61-1.55-1.61h-12.21c-.6,0-1.55.62-1.55,1.61v26.91c0,.99.96,1.61,1.55,1.61h12.21Z"/>
    </g>
  </g>
</svg>